<svg xmlns="http://www.w3.org/2000/svg" width="24" height="19" viewBox="0.5 100.5 24 19">
    <g fill-rule="evenodd" clip-rule="evenodd" fill="#ffffff">
        <path opacity=".7" d="M15.5 118.25h8v-16c.69 0 1 .31 1 1v15c0 .69-.31 1-1 1h-9l1-1zm-6 0h-8v-16c-.69 0-1 .31-1 1v15c0 .69.31 1 1 1h9l-1-1z"/>
        <path d="M14.815 100.75c-1.799 0-1.815 2-1.815 2v16.5s.791-2.062 3.059-2.062H22.5V100.75h-7.685zm-4.63 0H2.5v16.438h6.441c2.268 0 3.059 2.062 3.059 2.062v-16.5s.003-2-1.815-2z"/>
    </g>
</svg>
