<svg xmlns="http://www.w3.org/2000/svg" width="27" height="27" viewBox="0.14 841.445 27 27"><path fill="#E9AD5A" d="M13.64 849.266c.15 0 .295.01.44.022l-6.437-6.437c-2.876 1.432-5.15 3.838-6.416 6.79l10.362.014c.653-.256 1.348-.387 2.05-.388z"/><path fill="#E7D55C" d="M9.982 850.604H.858c-1.045 3.073-.947 6.42.276 9.427l7.285-7.32c.35-.813.883-1.535 1.56-2.106h.002z"/><path fill="#B2D361" d="M7.962 854.944c0-.134.01-.264.02-.396L1.56 860.97c1.433 2.864 3.834 5.128 6.777 6.39l.007-10.38c-.25-.65-.38-1.34-.382-2.036z"/><path fill="#78BE59" d="M11.286 860.107c-.764-.35-1.44-.86-1.983-1.502v9.125c3.04 1.036 6.352.95 9.335-.242 0 0-4.62-4.615-7.352-7.376v-.005z"/><path fill="#71C6D5" d="M15.732 860.22c-.323.127-.658.23-1.005.295-.036.007-.072.01-.108.016-.14.025-.28.05-.427.063-.185.018-.37.028-.557.028-.176 0-.352-.008-.527-.026l6.47 6.47c2.9-1.427 5.195-3.844 6.47-6.815l-10.32-.027.002-.004z"/><path fill="#5C94CF" d="M26.098 849.747l-7.207 7.355c-.346.844-.892 1.593-1.59 2.182h9.126c.474-1.398.716-2.864.714-4.34 0-1.843-.372-3.597-1.042-5.197z"/><path fill="#5659A4" d="M19.318 854.944c0 .078-.01.153-.012.23l6.36-6.36c-1.44-2.813-3.816-5.034-6.72-6.28l.007 10.42c.232.62.365 1.29.365 1.99z"/><path fill="#E57259" d="M17.982 851.288v-9.124c-3.062-1.043-6.397-.948-9.395.266l7.297 7.298c.81.35 1.53.884 2.098 1.56z"/></svg>