<svg xmlns="http://www.w3.org/2000/svg" width="25" height="25" viewBox="0.14 841.445 25 25"><path fill="#24DB1B" d="M24.427 841.445H1.075c-.34 0-.902.156-.902.592v1.34c0 .405.592.592.842.592h23.442c.405 0 .655-.25.655-.593v-1.34c-.032-.436-.375-.592-.685-.592zm0 22.446h-5.58c-.157 0-.157-.342-.157-.342l1.652-5.48s0-.093.156-.093h1.75c.346 0 .346-.498.346-.84v-10.05c0-.25-.093-.59-.404-.59l.094-.095H2.974c-.342 0-.342.405-.342.748v10.07c0 .25 0 .84.404.84h13.56c.16 0 .16.096.16.096l-1.992 5.58s-.094.155-.25.155h-4.148c-.156 0-.156-.25-.156-.25l-1.59-4.146s-.094-.592-.655-.592h-2.75c-.25 0-.25.343-.25.343l1.16 4.334s0 .342-.155.342H.64c-.343 0-.5.094-.5.343v1.278c0 .247.156.902.593.902H24.52c.404 0 .59-.592.59-.904v-1.34c-.03-.22-.28-.31-.684-.31zM6.53 855.567c-.093 0-.59-.404-.59-.498v-5.83c0-.094.5-.343.59-.343h12.222c.093 0 .373.25.373.343v5.642c0 .156-.313.592-.47.592-1.464.095-9.38.095-12.124.094z"/></svg>