<svg xmlns="http://www.w3.org/2000/svg" width="24" height="24" viewBox="0.14 841.445 24 24"><path fill="#77A4B3" d="M.77 864.832c-.653-.658-.653-1.72 0-2.377l6.535-6.535c.658-.653 1.72-.653 2.377 0 .656.658.656 1.722 0 2.38l-6.54 6.532c-.658.654-1.72.654-2.378 0H.77zm13.914-13.914c-.654-.658-.654-1.72 0-2.378l6.537-6.535c.66-.653 1.72-.653 2.378 0 .653.658.653 1.72 0 2.377l-6.533 6.536c-.657.654-1.72.654-2.377 0h-.004zm8.058-3.645l-2.81 2.81c.684 1.488.43 3.304-.793 4.528l-5.844 5.844c-.756.755-1.782 1.176-2.85 1.17-.582 0-1.155-.128-1.68-.373l-2.795 2.802c1.312.92 2.873 1.417 4.475 1.425 2.087.005 4.09-.82 5.567-2.297l5.84-5.84c2.722-2.73 3.012-6.993.88-10.057l.01-.01zm-8.902-5.823c-2.088-.006-4.092.82-5.568 2.297l-5.84 5.843c-2.728 2.726-3.016 6.99-.888 10.054l2.81-2.81c-.684-1.488-.43-3.304.793-4.528l5.843-5.843c.756-.755 1.782-1.176 2.85-1.17.595 0 1.163.133 1.68.373l2.795-2.8c-1.313-.922-2.877-1.417-4.48-1.42l.005.004z"/></svg>