<svg xmlns="http://www.w3.org/2000/svg" width="32" height="25" viewBox="0.14 841.445 32 25"><g fill="#4CD97E"><path d="M30.73 862.474c.89-1.152 1.41-2.532 1.41-4.016 0-4.04-3.82-7.31-8.53-7.31s-8.53 3.27-8.53 7.302c0 4.033 3.82 7.303 8.53 7.303 1.495.005 2.97-.34 4.307-1.007l3.798 1.434-.984-3.717v.01zm-9.255-4.88c-.71 0-1.283-.577-1.283-1.29 0-.71.575-1.288 1.283-1.288.71 0 1.283.577 1.283 1.29 0 .71-.574 1.288-1.283 1.288zm2.988-1.29c0-.71.575-1.287 1.283-1.287.71 0 1.283.577 1.283 1.29-.002.712-.58 1.288-1.29 1.288-.71-.002-1.286-.58-1.284-1.29h.007z"/><path d="M22.935 849.895c-1.093-4.675-5.725-8.185-11.275-8.185-6.362 0-11.52 4.612-11.52 10.304 0 3.127 1.56 5.927 4.018 7.817l-.18 3.36 4.14-1.363c1.15.332 2.344.5 3.542.5 1.01 0 2.015-.12 2.996-.355-.565-1.085-.86-2.29-.865-3.513 0-4.545 4.04-8.256 9.15-8.56l-.005-.005zm-14.69-.45c-.707 0-1.28-.577-1.28-1.29 0-.71.573-1.288 1.28-1.288.706 0 1.28.577 1.28 1.29 0 .71-.574 1.288-1.28 1.288zm6.83 0c-.71-.003-1.28-.58-1.278-1.29 0-.71.573-1.288 1.28-1.288s1.278.577 1.278 1.29c0 .71-.573 1.288-1.28 1.288z"/></g></svg>