<svg xmlns="http://www.w3.org/2000/svg" width="30" height="25" viewBox="0.14 841.445 30 25"><path fill="#FFF" d="M2.344 858.554c0 3.53 4.547 6.388 10.158 6.388 5.61 0 10.158-2.86 10.158-6.388 0-3.53-4.55-6.388-10.158-6.388-5.61 0-10.158 2.86-10.158 6.388"/><path fill="#DC3E34" d="M22.67 853.493c-.422-.128-.712-.215-.49-.776.478-1.22.528-2.27.008-3.02-.974-1.41-3.64-1.33-6.69-.04 0 0-.95.42-.71-.347.47-1.526.4-2.803-.33-3.54-1.654-1.675-6.06.063-9.84 3.88C1.79 852.51.14 855.54.14 858.158c0 5.01 6.363 8.054 12.587 8.054 8.158 0 13.583-4.784 13.583-8.588 0-2.292-1.916-3.6-3.636-4.134l-.004.003zm-9.932 10.93c-4.965.495-9.25-1.772-9.574-5.065-.323-3.29 3.442-6.358 8.408-6.858 4.965-.49 9.25 1.78 9.573 5.07.33 3.296-3.44 6.367-8.398 6.863l-.01-.01z"/><path fill="#E89214" d="M28.086 844.325c-1.89-2.126-4.778-3.07-7.558-2.47-.622.14-1.016.753-.883 1.376.13.623.738 1.022 1.36.893.002 0 .006 0 .01-.002 1.977-.426 4.032.247 5.376 1.76 1.35 1.518 1.8 3.635 1.18 5.57-.196.607.134 1.26.74 1.46.603.195 1.25-.136 1.443-.738 0-.002 0-.005.002-.007v-.005c.84-2.635.31-5.64-1.66-7.844M25.06 847.083c-.92-1.035-2.326-1.495-3.68-1.202-.538.12-.878.652-.76 1.19.108.535.628.88 1.163.773.003 0 .007 0 .01-.002.662-.14 1.35.085 1.8.59.453.51.6 1.222.39 1.87-.17.522.113 1.083.632 1.26.52.167 1.075-.118 1.242-.636l.002-.007c.426-1.326.12-2.78-.81-3.82"/><path fill="#040000" d="M13.234 855.034c-2.362-.62-5.033.568-6.06 2.67-1.047 2.145-.037 4.526 2.352 5.305 2.472.804 5.387-.43 6.398-2.744 1.003-2.27-.245-4.6-2.69-5.24v.008zm-1.804 5.476c-.48.774-1.51 1.114-2.283.756-.764-.36-.99-1.25-.51-2.01.476-.75 1.47-1.09 2.24-.76.777.33 1.025 1.23.553 2.01v.004zm1.583-2.05c-.174.3-.558.443-.86.318-.294-.12-.387-.45-.22-.75.174-.29.543-.43.838-.32.3.11.41.45.243.76v-.008z"/></svg>